/* XPM */
static char *a6c5ad7151fe480e8b5459f706bff99dTG96KEzeaoleLYkT[] = {
/* columns rows colors chars-per-pixel */
"32 32 33 1 ",
"  c #202020",
". c #232323",
"X c gray14",
"o c #282828",
"O c gray16",
"+ c #2A2A2A",
"@ c #2C2C2C",
"# c #2D2D2D",
"$ c gray18",
"% c #2F2F2F",
"& c #313131",
"* c #323232",
"= c gray20",
"- c #343434",
"; c #353535",
": c #373737",
"> c gray22",
", c #393939",
"< c #3A3A3A",
"1 c #3C3C3C",
"2 c #3E3E3E",
"3 c #3F3F3F",
"4 c #414141",
"5 c gray26",
"6 c #434343",
"7 c #444444",
"8 c gray27",
"9 c #464646",
"0 c gray28",
"q c #4C4C4C",
"w c gray31",
"e c gray32",
"r c #585858",
/* pixels */
"99999@  <3<<34993<399@  @@&3<<3<",
"99999@  <33<3499<3399@  @@&<3<<3",
"99999@  3<<3<499<<399@  &@-33<<3",
"99999@  <<3<349933399@  @@&3<<3<",
"99999@  33<<<499<3499@  @@&33<3<",
"33333+  &&-33333&&-99@  <<-&&&&&",
"3<3<<+  @&&<<3<3@@-99@  <3-@@@@@",
"3<<<3+  @@&3<<<3@@-q9@  <<<&@@&@",
"                                ",
"                                ",
"@@+@@@@+&&&&&&&&   ++&&&@@@@@@@@",
"99999999rrrrrrrr  +<3qrr99999999",
"99999999rrrrrrrr  +3<qrr99999999",
"33344499999qqqqq  +<39qq99434333",
"33<<3999<<499999  +<349999433<<3",
"<<3<<4993<399999  X3<9999943<<3<",
"@@@@&@@@<33<3&@@  X@@@@@3<3<33<3",
"&@@@@@@+3<<3<-@+  X@@+@&<3<3<<<<",
"++++++++&&&--@++  X+++++&--&---&",
"                                ",
"                                ",
"<<<<<+  -&<993<<994<<+  <<399999",
"99999+  <39rrq99rre99@  99qrrrrr",
"99999+  3<9rrq99rre99@  99qrrrrr",
"rrrrr&  <<49999999999@  @@-q9999",
"rrrrr&  3<39999999999@  @@-99999",
"qeqqe@  <<<4349433499@  @@-44444",
"3<3<3+  @@@@@-<3@@-99@  @&&333<3",
"<33<<+  @@&@@<3<@&-99@  &@&<<3<<",
"3<<33X  @@@@@-<3@@-99@  @@&<3<<3",
"<<<<<+  @&&@@<<<@@-q9@  @@&3<33<",
"<33<3+  @@@@@-33@@-99@  &@&3<<3<"
};
